<?xml version="1.0" encoding="UTF-8" standalone="no"?>
<!-- Generator: Adobe Illustrator 16.0.4, SVG Export Plug-In . SVG Version: 6.00 Build 0)  -->
<svg xmlns:dc="http://purl.org/dc/elements/1.1/" xmlns:cc="http://creativecommons.org/ns#" xmlns:rdf="http://www.w3.org/1999/02/22-rdf-syntax-ns#" xmlns:svg="http://www.w3.org/2000/svg" xmlns="http://www.w3.org/2000/svg" xmlns:xlink="http://www.w3.org/1999/xlink" xmlns:sodipodi="http://sodipodi.sourceforge.net/DTD/sodipodi-0.dtd" xmlns:inkscape="http://www.inkscape.org/namespaces/inkscape" version="1.1" id="Layer_1" x="0px" y="0px" width="75" height="77" viewBox="0 0 75 77" enable-background="new 0 0 864 432" xml:space="preserve" sodipodi:docname="logo.svg" inkscape:version="0.92.1 unknown"><metadata id="metadata33"><rdf:RDF><cc:Work rdf:about=""><dc:format>image/svg+xml</dc:format><dc:type rdf:resource="http://purl.org/dc/dcmitype/StillImage"/><dc:title/></cc:Work></rdf:RDF></metadata><defs id="defs31"><defs id="defs13"><polygon points="480.463,263.091 491.045,256.54 489.534,244.11 539.255,216.897 543.958,208.892 536.398,204.803 513.05,202.956 482.227,183.806 468.369,181.959 468.369,192.037 482.311,204.131 477.943,253.013 " id="SVGID_1_"/></defs><clipPath id="SVGID_2_"><use id="use15" overflow="visible" xlink:href="#SVGID_1_" style="overflow:visible" x="0" y="0" width="100%" height="100%"/></clipPath></defs><sodipodi:namedview pagecolor="#ffffff" bordercolor="#666666" borderopacity="1" objecttolerance="10" gridtolerance="10" guidetolerance="10" inkscape:pageopacity="0" inkscape:pageshadow="2" inkscape:window-width="1216" inkscape:window-height="647" id="namedview29" showgrid="false" inkscape:zoom="5.6568542" inkscape:cx="30.883984" inkscape:cy="40.893326" inkscape:window-x="229" inkscape:window-y="143" inkscape:window-maximized="0" inkscape:current-layer="Layer_1" inkscape:snap-global="false" fit-margin-top="2" fit-margin-left="2" fit-margin-right="2" fit-margin-bottom="2"/><g id="g4560" transform="translate(0.08719179,0.02077555)"><path sodipodi:nodetypes="ccccccccccccccccccccccccccc" inkscape:connector-curvature="0" id="path4547" d="m 10.990318,5.7404563 c -0.48135,0.59725 -0.75747,1.2714 -1.0837802,1.92717 -0.23364,0.0612 -0.44676,0.0836 -0.68721,0.16161 -2.36549,0.76778 -4.96413,2.4603097 -6.33972,5.7285697 -1.27864,3.03795 -0.90862,6.21071 -0.47062,7.55386 l 7.11726,21.81143 0.6288002,17.6067 v -0.33682 c 0,0 -0.1780202,3.60887 2.01138,7.10706 1.32119,2.11095 3.59868,4.22147 7.10977,4.75614 0.50669,0.0772 0.99102,0.019 1.48715,0.0204 0.0784,0.0742 0.12859,0.15052 0.21051,0.22409 1.84851,1.66017 4.61409,3.06108 8.13108,2.61574 3.2682,-0.41382 5.83029,-2.32075 7.7182,-4.42611 l 12.8397,-14.31733 16.93239,-10.69793 c 0,0 3.06289,-1.58473 4.98363,-5.23828 1.15056,-2.18862 1.83115,-5.20072 0.56769,-8.48962 -0.31632,-0.8234 -0.80601,-1.50803 -1.2875,-2.19337 0.41847,-2.3684 0.18632,-5.27563 -1.84162,-7.95588 -0.74452,-0.98404 -1.65204,-1.8087 -2.93766,-2.66632 -1.28562,-0.85763 -3.01112,-1.4536 -3.87751,-1.63792 l -18.53828,-3.94497 -18.12415,-9.6929197 0.29064,0.16705 c 0,0 -3.03042,-1.96756 -6.33655,-1.86011 -3.30613,0.10745 -6.27533,1.01297 -8.5036,3.77779 z" style="color:#000000;font-style:normal;font-variant:normal;font-weight:normal;font-stretch:normal;font-size:medium;line-height:normal;font-family:sans-serif;font-variant-ligatures:normal;font-variant-position:normal;font-variant-caps:normal;font-variant-numeric:normal;font-variant-alternates:normal;font-feature-settings:normal;text-indent:0;text-align:start;text-decoration:none;text-decoration-line:none;text-decoration-style:solid;text-decoration-color:#000000;letter-spacing:normal;word-spacing:normal;text-transform:none;writing-mode:lr-tb;direction:ltr;text-orientation:mixed;dominant-baseline:auto;baseline-shift:baseline;text-anchor:start;white-space:normal;shape-padding:0;clip-rule:nonzero;display:inline;overflow:visible;visibility:visible;opacity:1;isolation:auto;mix-blend-mode:normal;color-interpolation:sRGB;color-interpolation-filters:linearRGB;solid-color:#000000;solid-opacity:1;vector-effect:none;fill:#ffffff;fill-opacity:1;fill-rule:nonzero;stroke:none;stroke-width:15;stroke-linecap:butt;stroke-linejoin:miter;stroke-miterlimit:4;stroke-dasharray:none;stroke-dashoffset:0;stroke-opacity:1;color-rendering:auto;image-rendering:auto;shape-rendering:auto;text-rendering:auto;enable-background:accumulate"/><path inkscape:connector-curvature="0" id="path6" d="m 13.872258,12.426486 c -0.80356,-0.0517 -1.89457,-0.0103 -3.04356,0.36262 -1.1489802,0.37293 -2.5064902,1.28074 -3.1426902,2.7923 -0.63621,1.51157 -0.52878,3.27001 0.11952,5.25594 l 14.3213902,43.89044 c 0,0 0.53418,2.0782 2.3319,3.69273 0.89886,0.80727 2.36456,1.52746 3.99152,1.32145 1.62697,-0.20601 3.09518,-1.17847 4.48995,-2.7339 l 30.73839,-34.27629 c 0,0 1.53252,-1.50384 2.03039,-3.86929 0.24894,-1.18272 0.13918,-2.81021 -0.85019,-4.11783 -0.98936,-1.30762 -2.56419,-2.09791 -4.6081,-2.5329 l -45.05843,-9.58834 c 0,0 -0.51653,-0.14519 -1.32009,-0.19693 z m 0.34768,4.76701 45.05842,9.58699 c 1.38351,0.29444 1.79397,0.70271 1.8552,0.78363 0.0613,0.0809 0.0667,0.0315 0.003,0.33546 -0.12796,0.60791 -0.93575,1.71259 -0.93575,1.71259 l -30.73838,34.2763 c -0.94476,1.05356 -1.50315,1.20599 -1.59987,1.21823 -0.0967,0.0122 -0.0515,0.0446 -0.28113,-0.16161 -0.45924,-0.41244 -1.01316,-1.66642 -1.01316,-1.66642 l -14.3214,-43.8918 c -0.43925,-1.34554 -0.29131,-1.90366 -0.25397,-1.99237 0.0373,-0.0887 -0.0145,-0.0652 0.27841,-0.16025 0.58569,-0.19011 1.94891,-0.0408 1.94891,-0.0408 z" style="color:#000000;font-style:normal;font-variant:normal;font-weight:normal;font-stretch:normal;font-size:medium;line-height:normal;font-family:sans-serif;font-variant-ligatures:normal;font-variant-position:normal;font-variant-caps:normal;font-variant-numeric:normal;font-variant-alternates:normal;font-feature-settings:normal;text-indent:0;text-align:start;text-decoration:none;text-decoration-line:none;text-decoration-style:solid;text-decoration-color:#000000;letter-spacing:normal;word-spacing:normal;text-transform:none;writing-mode:lr-tb;direction:ltr;text-orientation:mixed;dominant-baseline:auto;baseline-shift:baseline;text-anchor:start;white-space:normal;shape-padding:0;clip-rule:nonzero;display:inline;overflow:visible;visibility:visible;opacity:1;isolation:auto;mix-blend-mode:normal;color-interpolation:sRGB;color-interpolation-filters:linearRGB;solid-color:#000000;solid-opacity:1;vector-effect:none;fill:#086287;fill-opacity:1;fill-rule:nonzero;stroke:none;stroke-width:6.71899986;stroke-linecap:butt;stroke-linejoin:miter;stroke-miterlimit:4;stroke-dasharray:none;stroke-dashoffset:0;stroke-opacity:1;color-rendering:auto;image-rendering:auto;shape-rendering:auto;text-rendering:auto;enable-background:accumulate"/><path inkscape:connector-curvature="0" id="path8" d="m 18.844348,7.2017863 c -1.20699,0.0392 -2.76412,0.53481 -3.79324,1.81174 -1.02913,1.2769297 -1.4112,2.9948797 -1.3364,5.0820897 l 1.65284,46.24815 c 0,0 -0.0617,2.14251 1.21959,4.1898 0.64067,1.02365 1.85262,2.1203 3.47408,2.36721 1.62145,0.24692 3.29835,-0.28792 5.06444,-1.40294 l 38.826,-24.51547 c 0,0 1.8853,-1.03137 3.01096,-3.17257 0.56282,-1.0706 0.90302,-2.66207 0.31508,-4.19253 -0.58794,-1.53045 -1.88063,-2.73099 -3.72397,-3.71717 L 23.080318,8.2543363 c 0,0 -1.82201,-1.13101 -4.23597,-1.05255 z m 0.1521,4.6692297 c 0.6131,-0.0199 1.881,0.5025 1.881,0.5025 l 40.47205,21.64576 c 1.24614,0.66668 1.52847,1.17293 1.56727,1.27392 0.0388,0.10099 0.0566,0.0654 -0.0896,0.3436 -0.29253,0.55645 -1.37035,1.39615 -1.37035,1.39615 l -38.826,24.51411 c -1.19718,0.75584 -1.77387,0.74879 -1.86606,0.73475 -0.0922,-0.014 -0.0547,0.0329 -0.2173,-0.22681 -0.32511,-0.51946 -0.51066,-1.87829 -0.51066,-1.87828 l -1.65283,-46.24814 c -0.0507,-1.41461 0.24662,-1.90971 0.30558,-1.98286 0.059,-0.0732 3.8e-4,-0.0647 0.30693,-0.0747 z" style="color:#000000;font-style:normal;font-variant:normal;font-weight:normal;font-stretch:normal;font-size:medium;line-height:normal;font-family:sans-serif;font-variant-ligatures:normal;font-variant-position:normal;font-variant-caps:normal;font-variant-numeric:normal;font-variant-alternates:normal;font-feature-settings:normal;text-indent:0;text-align:start;text-decoration:none;text-decoration-line:none;text-decoration-style:solid;text-decoration-color:#000000;letter-spacing:normal;word-spacing:normal;text-transform:none;writing-mode:lr-tb;direction:ltr;text-orientation:mixed;dominant-baseline:auto;baseline-shift:baseline;text-anchor:start;white-space:normal;shape-padding:0;clip-rule:nonzero;display:inline;overflow:visible;visibility:visible;opacity:1;isolation:auto;mix-blend-mode:normal;color-interpolation:sRGB;color-interpolation-filters:linearRGB;solid-color:#000000;solid-opacity:1;vector-effect:none;fill:#81c459;fill-opacity:1;fill-rule:nonzero;stroke:none;stroke-width:6.71899986;stroke-linecap:butt;stroke-linejoin:miter;stroke-miterlimit:4;stroke-dasharray:none;stroke-dashoffset:0;stroke-opacity:1;color-rendering:auto;image-rendering:auto;shape-rendering:auto;text-rendering:auto;enable-background:accumulate"/><path transform="matrix(0.69535865,0,0,0.69535865,-312.64888,-114.69512)" inkscape:connector-curvature="0" id="path18" clip-path="url(#SVGID_2_)" d="m 469.57227,182.81445 c -1.15563,-0.0743 -2.72464,-0.015 -4.37696,0.52149 -1.65231,0.53649 -3.60467,1.84182 -4.51953,4.01562 -0.91485,2.1738 -0.76045,4.70261 0.17188,7.5586 l 20.5957,63.11914 c 0,0 0.7682,2.98868 3.35352,5.31054 1.29265,1.16094 3.40048,2.19666 5.74023,1.90039 2.33975,-0.29626 4.45119,-1.69477 6.45703,-3.93164 l 44.20508,-49.29297 c 0,0 2.20395,-2.1626 2.91992,-5.56445 0.35799,-1.70092 0.20003,-4.04128 -1.22266,-5.92187 -1.42269,-1.88059 -3.68757,-3.01867 -6.62695,-3.64453 L 471.4707,183.09766 c 0,0 -0.74281,-0.20893 -1.89843,-0.28321 z m 0.5,6.85352 64.79882,13.78906 c 1.98963,0.42364 2.57979,1.01039 2.66797,1.12695 0.0882,0.11657 0.0959,0.0452 0.004,0.48243 -0.18403,0.8744 -1.3457,2.46289 -1.3457,2.46289 l -44.20508,49.29297 c -1.35866,1.51513 -2.16169,1.73434 -2.30078,1.75195 -0.13909,0.0176 -0.0741,0.0641 -0.4043,-0.23242 -0.66043,-0.59313 -1.45703,-2.39649 -1.45703,-2.39649 l -20.5957,-63.12109 c -0.63168,-1.93501 -0.41901,-2.73747 -0.36524,-2.86524 0.0538,-0.12776 -0.0208,-0.0957 0.40039,-0.23242 0.84237,-0.27351 2.80274,-0.0586 2.80274,-0.0586 z" style="color:#000000;font-style:normal;font-variant:normal;font-weight:normal;font-stretch:normal;font-size:medium;line-height:normal;font-family:sans-serif;font-variant-ligatures:normal;font-variant-position:normal;font-variant-caps:normal;font-variant-numeric:normal;font-variant-alternates:normal;font-feature-settings:normal;text-indent:0;text-align:start;text-decoration:none;text-decoration-line:none;text-decoration-style:solid;text-decoration-color:#000000;letter-spacing:normal;word-spacing:normal;text-transform:none;writing-mode:lr-tb;direction:ltr;text-orientation:mixed;dominant-baseline:auto;baseline-shift:baseline;text-anchor:start;white-space:normal;shape-padding:0;clip-rule:nonzero;display:inline;overflow:visible;visibility:visible;opacity:1;isolation:auto;mix-blend-mode:normal;color-interpolation:sRGB;color-interpolation-filters:linearRGB;solid-color:#000000;solid-opacity:1;vector-effect:none;fill:#086287;fill-opacity:1;fill-rule:nonzero;stroke:none;stroke-width:9.66263962;stroke-linecap:butt;stroke-linejoin:miter;stroke-miterlimit:4;stroke-dasharray:none;stroke-dashoffset:0;stroke-opacity:1;color-rendering:auto;image-rendering:auto;shape-rendering:auto;text-rendering:auto;enable-background:accumulate"/></g></svg>